<mxfile host="app.diagrams.net" agent="Mozilla/5.0 (X11; Ubuntu; Linux x86_64; rv:132.0) Gecko/20100101 Firefox/132.0" version="24.8.4">
  <diagram name="第 1 页" id="o1nPBeW_5sJYAoUhNwDr">
    <mxGraphModel dx="1434" dy="794" grid="1" gridSize="10" guides="1" tooltips="1" connect="1" arrows="1" fold="1" page="1" pageScale="1" pageWidth="827" pageHeight="1169" math="0" shadow="0">
      <root>
        <mxCell id="0" />
        <mxCell id="1" parent="0" />
        <mxCell id="KA5F_iJT4oxAYyvI0Ve_-11" value="" style="group" vertex="1" connectable="0" parent="1">
          <mxGeometry x="80" y="160" width="80" height="40" as="geometry" />
        </mxCell>
        <mxCell id="KA5F_iJT4oxAYyvI0Ve_-7" value="" style="rounded=0;whiteSpace=wrap;html=1;movable=1;resizable=1;rotatable=1;deletable=1;editable=1;locked=0;connectable=1;" vertex="1" parent="KA5F_iJT4oxAYyvI0Ve_-11">
          <mxGeometry width="80" height="40" as="geometry" />
        </mxCell>
        <mxCell id="KA5F_iJT4oxAYyvI0Ve_-8" value="" style="rounded=0;whiteSpace=wrap;html=1;movable=1;resizable=1;rotatable=1;deletable=1;editable=1;locked=0;connectable=1;" vertex="1" parent="KA5F_iJT4oxAYyvI0Ve_-11">
          <mxGeometry x="3.333333333333333" y="3.333333333333333" width="73.33333333333333" height="33.33333333333333" as="geometry" />
        </mxCell>
        <mxCell id="KA5F_iJT4oxAYyvI0Ve_-12" value="" style="group" vertex="1" connectable="0" parent="1">
          <mxGeometry x="200" y="160" width="80" height="40" as="geometry" />
        </mxCell>
        <mxCell id="KA5F_iJT4oxAYyvI0Ve_-13" value="" style="rounded=0;whiteSpace=wrap;html=1;movable=1;resizable=1;rotatable=1;deletable=1;editable=1;locked=0;connectable=1;" vertex="1" parent="KA5F_iJT4oxAYyvI0Ve_-12">
          <mxGeometry width="80" height="40" as="geometry" />
        </mxCell>
        <mxCell id="KA5F_iJT4oxAYyvI0Ve_-14" value="" style="rounded=0;whiteSpace=wrap;html=1;movable=1;resizable=1;rotatable=1;deletable=1;editable=1;locked=0;connectable=1;" vertex="1" parent="KA5F_iJT4oxAYyvI0Ve_-12">
          <mxGeometry x="3.333333333333333" y="3.333333333333333" width="73.33333333333333" height="33.33333333333333" as="geometry" />
        </mxCell>
        <mxCell id="KA5F_iJT4oxAYyvI0Ve_-15" value="" style="group" vertex="1" connectable="0" parent="1">
          <mxGeometry x="320" y="160" width="80" height="40" as="geometry" />
        </mxCell>
        <mxCell id="KA5F_iJT4oxAYyvI0Ve_-16" value="" style="rounded=0;whiteSpace=wrap;html=1;movable=1;resizable=1;rotatable=1;deletable=1;editable=1;locked=0;connectable=1;" vertex="1" parent="KA5F_iJT4oxAYyvI0Ve_-15">
          <mxGeometry width="80" height="40" as="geometry" />
        </mxCell>
        <mxCell id="KA5F_iJT4oxAYyvI0Ve_-17" value="" style="rounded=0;whiteSpace=wrap;html=1;movable=1;resizable=1;rotatable=1;deletable=1;editable=1;locked=0;connectable=1;" vertex="1" parent="KA5F_iJT4oxAYyvI0Ve_-15">
          <mxGeometry x="3.333333333333333" y="3.333333333333333" width="73.33333333333333" height="33.33333333333333" as="geometry" />
        </mxCell>
        <mxCell id="KA5F_iJT4oxAYyvI0Ve_-19" value="" style="group" vertex="1" connectable="0" parent="1">
          <mxGeometry x="440" y="160" width="80" height="40" as="geometry" />
        </mxCell>
        <mxCell id="KA5F_iJT4oxAYyvI0Ve_-20" value="" style="rounded=0;whiteSpace=wrap;html=1;movable=1;resizable=1;rotatable=1;deletable=1;editable=1;locked=0;connectable=1;" vertex="1" parent="KA5F_iJT4oxAYyvI0Ve_-19">
          <mxGeometry width="80" height="40" as="geometry" />
        </mxCell>
        <mxCell id="KA5F_iJT4oxAYyvI0Ve_-21" value="" style="rounded=0;whiteSpace=wrap;html=1;movable=1;resizable=1;rotatable=1;deletable=1;editable=1;locked=0;connectable=1;" vertex="1" parent="KA5F_iJT4oxAYyvI0Ve_-19">
          <mxGeometry x="3.333333333333333" y="3.333333333333333" width="73.33333333333333" height="33.33333333333333" as="geometry" />
        </mxCell>
        <mxCell id="KA5F_iJT4oxAYyvI0Ve_-23" value="" style="group" vertex="1" connectable="0" parent="1">
          <mxGeometry x="80" y="240" width="80" height="40" as="geometry" />
        </mxCell>
        <mxCell id="KA5F_iJT4oxAYyvI0Ve_-24" value="" style="rounded=0;whiteSpace=wrap;html=1;movable=1;resizable=1;rotatable=1;deletable=1;editable=1;locked=0;connectable=1;" vertex="1" parent="KA5F_iJT4oxAYyvI0Ve_-23">
          <mxGeometry width="80" height="40" as="geometry" />
        </mxCell>
        <mxCell id="KA5F_iJT4oxAYyvI0Ve_-25" value="" style="rounded=0;whiteSpace=wrap;html=1;movable=1;resizable=1;rotatable=1;deletable=1;editable=1;locked=0;connectable=1;" vertex="1" parent="KA5F_iJT4oxAYyvI0Ve_-23">
          <mxGeometry x="3.333333333333333" y="3.333333333333333" width="73.33333333333333" height="33.33333333333333" as="geometry" />
        </mxCell>
        <mxCell id="KA5F_iJT4oxAYyvI0Ve_-26" value="" style="group" vertex="1" connectable="0" parent="1">
          <mxGeometry x="200" y="240" width="80" height="40" as="geometry" />
        </mxCell>
        <mxCell id="KA5F_iJT4oxAYyvI0Ve_-27" value="" style="rounded=0;whiteSpace=wrap;html=1;movable=1;resizable=1;rotatable=1;deletable=1;editable=1;locked=0;connectable=1;" vertex="1" parent="KA5F_iJT4oxAYyvI0Ve_-26">
          <mxGeometry width="80" height="40" as="geometry" />
        </mxCell>
        <mxCell id="KA5F_iJT4oxAYyvI0Ve_-28" value="" style="rounded=0;whiteSpace=wrap;html=1;movable=1;resizable=1;rotatable=1;deletable=1;editable=1;locked=0;connectable=1;" vertex="1" parent="KA5F_iJT4oxAYyvI0Ve_-26">
          <mxGeometry x="3.333333333333333" y="3.333333333333333" width="73.33333333333333" height="33.33333333333333" as="geometry" />
        </mxCell>
        <mxCell id="KA5F_iJT4oxAYyvI0Ve_-29" value="" style="group" vertex="1" connectable="0" parent="1">
          <mxGeometry x="320" y="240" width="80" height="40" as="geometry" />
        </mxCell>
        <mxCell id="KA5F_iJT4oxAYyvI0Ve_-30" value="" style="rounded=0;whiteSpace=wrap;html=1;movable=1;resizable=1;rotatable=1;deletable=1;editable=1;locked=0;connectable=1;" vertex="1" parent="KA5F_iJT4oxAYyvI0Ve_-29">
          <mxGeometry width="80" height="40" as="geometry" />
        </mxCell>
        <mxCell id="KA5F_iJT4oxAYyvI0Ve_-31" value="" style="rounded=0;whiteSpace=wrap;html=1;movable=1;resizable=1;rotatable=1;deletable=1;editable=1;locked=0;connectable=1;" vertex="1" parent="KA5F_iJT4oxAYyvI0Ve_-29">
          <mxGeometry x="3.333333333333333" y="3.333333333333333" width="73.33333333333333" height="33.33333333333333" as="geometry" />
        </mxCell>
        <mxCell id="KA5F_iJT4oxAYyvI0Ve_-32" value="" style="group" vertex="1" connectable="0" parent="1">
          <mxGeometry x="440" y="240" width="80" height="40" as="geometry" />
        </mxCell>
        <mxCell id="KA5F_iJT4oxAYyvI0Ve_-33" value="" style="rounded=0;whiteSpace=wrap;html=1;movable=1;resizable=1;rotatable=1;deletable=1;editable=1;locked=0;connectable=1;" vertex="1" parent="KA5F_iJT4oxAYyvI0Ve_-32">
          <mxGeometry width="80" height="40" as="geometry" />
        </mxCell>
        <mxCell id="KA5F_iJT4oxAYyvI0Ve_-34" value="" style="rounded=0;whiteSpace=wrap;html=1;movable=1;resizable=1;rotatable=1;deletable=1;editable=1;locked=0;connectable=1;" vertex="1" parent="KA5F_iJT4oxAYyvI0Ve_-32">
          <mxGeometry x="3.333333333333333" y="3.333333333333333" width="73.33333333333333" height="33.33333333333333" as="geometry" />
        </mxCell>
        <mxCell id="KA5F_iJT4oxAYyvI0Ve_-35" value="" style="group" vertex="1" connectable="0" parent="1">
          <mxGeometry x="80" y="320" width="80" height="40" as="geometry" />
        </mxCell>
        <mxCell id="KA5F_iJT4oxAYyvI0Ve_-36" value="" style="rounded=0;whiteSpace=wrap;html=1;movable=1;resizable=1;rotatable=1;deletable=1;editable=1;locked=0;connectable=1;" vertex="1" parent="KA5F_iJT4oxAYyvI0Ve_-35">
          <mxGeometry width="80" height="40" as="geometry" />
        </mxCell>
        <mxCell id="KA5F_iJT4oxAYyvI0Ve_-37" value="" style="rounded=0;whiteSpace=wrap;html=1;movable=1;resizable=1;rotatable=1;deletable=1;editable=1;locked=0;connectable=1;" vertex="1" parent="KA5F_iJT4oxAYyvI0Ve_-35">
          <mxGeometry x="3.333333333333333" y="3.333333333333333" width="73.33333333333333" height="33.33333333333333" as="geometry" />
        </mxCell>
        <mxCell id="KA5F_iJT4oxAYyvI0Ve_-38" value="" style="group" vertex="1" connectable="0" parent="1">
          <mxGeometry x="200" y="320" width="80" height="40" as="geometry" />
        </mxCell>
        <mxCell id="KA5F_iJT4oxAYyvI0Ve_-39" value="" style="rounded=0;whiteSpace=wrap;html=1;movable=1;resizable=1;rotatable=1;deletable=1;editable=1;locked=0;connectable=1;" vertex="1" parent="KA5F_iJT4oxAYyvI0Ve_-38">
          <mxGeometry width="80" height="40" as="geometry" />
        </mxCell>
        <mxCell id="KA5F_iJT4oxAYyvI0Ve_-40" value="" style="rounded=0;whiteSpace=wrap;html=1;movable=1;resizable=1;rotatable=1;deletable=1;editable=1;locked=0;connectable=1;" vertex="1" parent="KA5F_iJT4oxAYyvI0Ve_-38">
          <mxGeometry x="3.333333333333333" y="3.333333333333333" width="73.33333333333333" height="33.33333333333333" as="geometry" />
        </mxCell>
        <mxCell id="KA5F_iJT4oxAYyvI0Ve_-41" value="" style="group" vertex="1" connectable="0" parent="1">
          <mxGeometry x="320" y="320" width="80" height="40" as="geometry" />
        </mxCell>
        <mxCell id="KA5F_iJT4oxAYyvI0Ve_-42" value="" style="rounded=0;whiteSpace=wrap;html=1;movable=1;resizable=1;rotatable=1;deletable=1;editable=1;locked=0;connectable=1;" vertex="1" parent="KA5F_iJT4oxAYyvI0Ve_-41">
          <mxGeometry width="80" height="40" as="geometry" />
        </mxCell>
        <mxCell id="KA5F_iJT4oxAYyvI0Ve_-43" value="" style="rounded=0;whiteSpace=wrap;html=1;movable=1;resizable=1;rotatable=1;deletable=1;editable=1;locked=0;connectable=1;" vertex="1" parent="KA5F_iJT4oxAYyvI0Ve_-41">
          <mxGeometry x="3.333333333333333" y="3.333333333333333" width="73.33333333333333" height="33.33333333333333" as="geometry" />
        </mxCell>
        <mxCell id="KA5F_iJT4oxAYyvI0Ve_-44" value="" style="group" vertex="1" connectable="0" parent="1">
          <mxGeometry x="440" y="320" width="80" height="40" as="geometry" />
        </mxCell>
        <mxCell id="KA5F_iJT4oxAYyvI0Ve_-45" value="" style="rounded=0;whiteSpace=wrap;html=1;movable=1;resizable=1;rotatable=1;deletable=1;editable=1;locked=0;connectable=1;" vertex="1" parent="KA5F_iJT4oxAYyvI0Ve_-44">
          <mxGeometry width="80" height="40" as="geometry" />
        </mxCell>
        <mxCell id="KA5F_iJT4oxAYyvI0Ve_-46" value="" style="rounded=0;whiteSpace=wrap;html=1;movable=1;resizable=1;rotatable=1;deletable=1;editable=1;locked=0;connectable=1;" vertex="1" parent="KA5F_iJT4oxAYyvI0Ve_-44">
          <mxGeometry x="3.333333333333333" y="3.333333333333333" width="73.33333333333333" height="33.33333333333333" as="geometry" />
        </mxCell>
        <mxCell id="KA5F_iJT4oxAYyvI0Ve_-47" value="" style="group" vertex="1" connectable="0" parent="1">
          <mxGeometry x="80" y="400" width="80" height="40" as="geometry" />
        </mxCell>
        <mxCell id="KA5F_iJT4oxAYyvI0Ve_-48" value="" style="rounded=0;whiteSpace=wrap;html=1;movable=1;resizable=1;rotatable=1;deletable=1;editable=1;locked=0;connectable=1;" vertex="1" parent="KA5F_iJT4oxAYyvI0Ve_-47">
          <mxGeometry width="80" height="40" as="geometry" />
        </mxCell>
        <mxCell id="KA5F_iJT4oxAYyvI0Ve_-49" value="" style="rounded=0;whiteSpace=wrap;html=1;movable=1;resizable=1;rotatable=1;deletable=1;editable=1;locked=0;connectable=1;" vertex="1" parent="KA5F_iJT4oxAYyvI0Ve_-47">
          <mxGeometry x="3.333333333333333" y="3.333333333333333" width="73.33333333333333" height="33.33333333333333" as="geometry" />
        </mxCell>
        <mxCell id="KA5F_iJT4oxAYyvI0Ve_-50" value="" style="group" vertex="1" connectable="0" parent="1">
          <mxGeometry x="200" y="400" width="80" height="40" as="geometry" />
        </mxCell>
        <mxCell id="KA5F_iJT4oxAYyvI0Ve_-51" value="" style="rounded=0;whiteSpace=wrap;html=1;movable=1;resizable=1;rotatable=1;deletable=1;editable=1;locked=0;connectable=1;" vertex="1" parent="KA5F_iJT4oxAYyvI0Ve_-50">
          <mxGeometry width="80" height="40" as="geometry" />
        </mxCell>
        <mxCell id="KA5F_iJT4oxAYyvI0Ve_-52" value="" style="rounded=0;whiteSpace=wrap;html=1;movable=1;resizable=1;rotatable=1;deletable=1;editable=1;locked=0;connectable=1;" vertex="1" parent="KA5F_iJT4oxAYyvI0Ve_-50">
          <mxGeometry x="3.333333333333333" y="3.333333333333333" width="73.33333333333333" height="33.33333333333333" as="geometry" />
        </mxCell>
        <mxCell id="KA5F_iJT4oxAYyvI0Ve_-53" value="" style="group" vertex="1" connectable="0" parent="1">
          <mxGeometry x="320" y="400" width="80" height="40" as="geometry" />
        </mxCell>
        <mxCell id="KA5F_iJT4oxAYyvI0Ve_-54" value="" style="rounded=0;whiteSpace=wrap;html=1;movable=1;resizable=1;rotatable=1;deletable=1;editable=1;locked=0;connectable=1;" vertex="1" parent="KA5F_iJT4oxAYyvI0Ve_-53">
          <mxGeometry width="80" height="40" as="geometry" />
        </mxCell>
        <mxCell id="KA5F_iJT4oxAYyvI0Ve_-55" value="" style="rounded=0;whiteSpace=wrap;html=1;movable=1;resizable=1;rotatable=1;deletable=1;editable=1;locked=0;connectable=1;" vertex="1" parent="KA5F_iJT4oxAYyvI0Ve_-53">
          <mxGeometry x="3.333333333333333" y="3.333333333333333" width="73.33333333333333" height="33.33333333333333" as="geometry" />
        </mxCell>
        <mxCell id="KA5F_iJT4oxAYyvI0Ve_-56" value="" style="group" vertex="1" connectable="0" parent="1">
          <mxGeometry x="440" y="400" width="80" height="40" as="geometry" />
        </mxCell>
        <mxCell id="KA5F_iJT4oxAYyvI0Ve_-57" value="" style="rounded=0;whiteSpace=wrap;html=1;movable=1;resizable=1;rotatable=1;deletable=1;editable=1;locked=0;connectable=1;" vertex="1" parent="KA5F_iJT4oxAYyvI0Ve_-56">
          <mxGeometry width="80" height="40" as="geometry" />
        </mxCell>
        <mxCell id="KA5F_iJT4oxAYyvI0Ve_-58" value="" style="rounded=0;whiteSpace=wrap;html=1;movable=1;resizable=1;rotatable=1;deletable=1;editable=1;locked=0;connectable=1;" vertex="1" parent="KA5F_iJT4oxAYyvI0Ve_-56">
          <mxGeometry x="3.333333333333333" y="3.333333333333333" width="73.33333333333333" height="33.33333333333333" as="geometry" />
        </mxCell>
      </root>
    </mxGraphModel>
  </diagram>
</mxfile>
